# xmcd
#
# Track frame offsets: 
#        150
#        11784
#        24798
#        35719
#        49102
#        59219
#        70599
#        82378
#        96945
#        107491
#        119165
#        132175
#
# Disc length: 1877 seconds
#
# Revision: 0
# Processed by: cddbd v1.5PL3 Copyright (c) Steve Scherf et al.
# Submitted via: ExactAudioCopy v0.95a5
#
DISCID=ac07530c
DTITLE=The Suggins Brothers - Bluegrass On My Mind
DYEAR=2001
DGENRE=Bluegrass
TTITLE0=Downtown Blues
TTITLE1=Why Don't You Tell Me So
TTITLE2=God Gave You To Me
TTITLE3=A Few More Seasons
TTITLE4=Fireball
TTITLE5=Let Those Brown Eyes Smile At Me
TTITLE6=Sweetheart You've Done Me Wrong
TTITLE7=I Never Go Around Mirrors
TTITLE8=I'll Go Drifting With The Tide
TTITLE9=Little Cabin Home On The Hill
TTITLE10=On My Mind
TTITLE11=Head Over Heels In Love With You
EXTD=
EXTT0=
EXTT1=
EXTT2=
EXTT3=
EXTT4=
EXTT5=
EXTT6=
EXTT7=
EXTT8=
EXTT9=
EXTT10=
EXTT11=
PLAYORDER=
